<svg xmlns="http://www.w3.org/2000/svg" viewBox="0 0 600 900">
  <defs>
    <linearGradient id="g" x1="0" x2="0" y1="0" y2="1">
      <stop offset="0" stop-color="#5b3528"/>
      <stop offset="1" stop-color="#3a2218"/>
    </linearGradient>
    <pattern id="dots" width="24" height="24" patternUnits="userSpaceOnUse">
      <circle cx="6" cy="6" r="0.8" fill="rgba(255,255,255,0.06)"/>
    </pattern>
  </defs>
  <rect width="100%" height="100%" rx="36" ry="36" fill="url(#g)"/>
  <rect x="18" y="18" width="564" height="864" rx="28" ry="28" fill="url(#dots)" opacity="0.18"/>
  <g fill="none" stroke="#e7d6bf" stroke-width="6" stroke-linecap="round" stroke-linejoin="round" opacity="0.95">
    <rect x="28" y="28" width="544" height="844" rx="22" ry="22"/>
    <path d="M300 120c30 0 80 28 80 80s-60 80-80 80-80-28-80-80 50-80 80-80z"/>
    <path d="M300 780c-30 0-80-28-80-80s60-80 80-80 80 28 80 80-50 80-80 80z" transform="rotate(180 300 450)"/>
  </g>
  <g fill="#c99b78" opacity="0.95">
    <circle cx="300" cy="300" r="6"/>
    <circle cx="300" cy="600" r="6"/>
  </g>
</svg>